<svg width="31" height="30" viewBox="0 0 31 30" fill="none" xmlns="http://www.w3.org/2000/svg">
<rect width="31" height="30" fill="#1E1E1E"/>
<rect width="1439.74" height="661" transform="translate(-725 -429)" fill="white"/>
<path d="M17.3232 0.97168C15.1232 0.97168 13.0565 1.47168 11.1232 2.47168C9.18982 3.47168 7.62315 4.87168 6.42315 6.67168C6.95648 7.00501 7.45648 7.43835 7.92315 7.97168C8.78982 6.63835 9.93982 5.52168 11.3732 4.62168C12.8065 3.72168 14.3565 3.17168 16.0232 2.97168L17.3232 5.27168L18.7232 2.97168C20.4565 3.17168 22.0398 3.73835 23.4732 4.67168C24.9065 5.60501 26.0732 6.78835 26.9732 8.22168C27.8731 9.65501 28.4565 11.2383 28.7232 12.9717L26.3232 14.2717L28.7232 15.6717C28.4565 17.405 27.8731 18.9883 26.9732 20.4217C26.0732 21.855 24.8898 23.0383 23.4232 23.9717C23.6232 24.3717 23.7232 24.755 23.7232 25.1217C23.7232 25.4883 23.6898 25.805 23.6232 26.0717C25.7565 24.9383 27.4732 23.3217 28.7732 21.2217C30.0732 19.1217 30.7232 16.8383 30.7232 14.3717C30.7232 11.905 30.1232 9.65501 28.9232 7.62168C27.7232 5.58835 26.1065 3.97168 24.0732 2.77168C22.0398 1.57168 19.7898 0.97168 17.3232 0.97168ZM20.7232 22.9717C19.8565 22.2383 19.1232 21.7883 18.5232 21.6217C17.9232 21.455 17.3898 21.505 16.9232 21.7717C16.5898 21.9717 16.1565 22.3383 15.6232 22.8717L15.4232 23.0717C14.9565 23.5383 14.1565 23.405 13.0232 22.6717C12.1565 22.0717 11.0898 21.1383 9.82315 19.8717C8.55648 18.605 7.65648 17.5383 7.12315 16.6717C6.38982 15.5383 6.22315 14.7383 6.62315 14.2717L6.92315 14.0717C7.45648 13.5383 7.78982 13.1383 7.92315 12.8717C8.18982 12.405 8.25648 11.8717 8.12315 11.2717C7.98982 10.6717 7.55648 9.92168 6.82315 9.02168C6.08982 8.12168 5.42315 7.62168 4.82315 7.52168C4.22315 7.42168 3.65648 7.53835 3.12315 7.87168C2.78982 8.13835 2.32315 8.57168 1.72315 9.17168L1.32315 9.57168C0.789818 10.105 0.623151 11.0717 0.823151 12.4717C1.02315 13.8717 1.62315 15.4383 2.62315 17.1717C3.68982 19.105 5.13982 20.9717 6.97315 22.7717C8.80648 24.5717 10.6898 26.0383 12.6232 27.1717C14.3565 28.105 15.9065 28.6883 17.2732 28.9217C18.6398 29.155 19.5898 29.005 20.1232 28.4717L20.5232 27.9717C21.1898 27.4383 21.6231 27.005 21.8232 26.6717C22.2232 26.0717 22.3565 25.4717 22.2232 24.8717C22.0898 24.2717 21.5898 23.6383 20.7232 22.9717ZM11.4232 16.3717C11.4232 15.6383 11.6565 14.9717 12.1232 14.3717C12.3898 14.0383 12.8565 13.6717 13.5232 13.2717C13.9232 13.005 14.2065 12.7883 14.3732 12.6217C14.5398 12.455 14.6232 12.2717 14.6232 12.0717C14.6232 11.8717 14.5398 11.705 14.3732 11.5717C14.2065 11.4383 13.9898 11.3717 13.7232 11.3717C13.4565 11.3717 13.2232 11.505 13.0232 11.7717L12.7232 12.1717L11.3232 11.2717L11.6232 10.8717C11.8232 10.5383 12.0898 10.2717 12.4232 10.0717C12.8898 9.80501 13.4232 9.67168 14.0232 9.67168C14.6232 9.67168 15.1898 9.85501 15.7232 10.2217C16.2565 10.5883 16.5232 11.1217 16.5232 11.8217C16.5232 12.5217 16.2898 13.105 15.8232 13.5717C15.5565 13.8383 15.1232 14.1717 14.5232 14.5717L13.7232 15.0717C13.5232 15.2717 13.4232 15.4717 13.4232 15.6717H16.6232V17.1717H11.4232C11.4232 16.905 11.4232 16.6383 11.4232 16.3717ZM17.3232 14.2717L20.2232 9.77168H22.4232V13.8717H23.3232V15.3717H22.4232V17.1717H20.6232V15.3717H17.3232V14.2717ZM20.6232 13.8717V12.2717C20.6232 12.005 20.6565 11.705 20.7232 11.3717L20.3232 12.1717L19.2232 13.8717H20.6232Z" fill="#F51304"/>
</svg>
