<svg width="31" height="22" viewBox="0 0 31 22" fill="none" xmlns="http://www.w3.org/2000/svg">
<rect width="31" height="22" fill="#1E1E1E"/>
<rect width="1439.74" height="661" transform="translate(-725 -482)" fill="white"/>
<path d="M29.9413 11.6C29.0747 9.60005 26.608 7.20005 22.5413 4.40005C20.5413 3.00005 18.6413 1.80005 16.8413 0.800049C16.7747 0.733381 16.6747 0.700048 16.5413 0.700048C14.808 0.366714 12.6747 0.200048 10.1413 0.200048C7.608 0.200048 4.908 0.433382 2.04133 0.900049C1.77467 0.966715 1.54133 1.11671 1.34133 1.35005C1.14133 1.58338 1.058 1.86671 1.09133 2.20005C1.12467 2.53338 1.27467 2.80005 1.54133 3.00005C1.808 3.20005 2.108 3.26672 2.44133 3.20005L2.94133 3.10005C2.54133 3.90005 2.14133 4.86671 1.74133 6.00005C1.07467 8.20005 0.741333 10.4334 0.741333 12.7V14.7C0.741333 16.0334 1.19133 17.15 2.09133 18.05C2.99133 18.95 4.07467 19.4 5.34133 19.4C5.608 20.1334 6.04133 20.7167 6.64133 21.15C7.24133 21.5834 7.908 21.8 8.64133 21.8C9.37467 21.8 10.058 21.5834 10.6913 21.15C11.3247 20.7167 11.7413 20.1334 11.9413 19.4H16.0413C16.3747 19.4 16.658 19.2834 16.8913 19.05C17.1247 18.8167 17.2413 18.55 17.2413 18.25C17.2413 17.95 17.1247 17.6834 16.8913 17.45C16.658 17.2167 16.3747 17.1 16.0413 17.1H11.9413C11.7413 16.4334 11.3247 15.8667 10.6913 15.4C10.058 14.9334 9.37467 14.7 8.64133 14.7C7.908 14.7 7.24133 14.9334 6.64133 15.4C6.04133 15.8667 5.608 16.4334 5.34133 17.1C4.74133 17.1 4.208 16.8667 3.74133 16.4C3.27467 15.9334 3.04133 15.3667 3.04133 14.7V12.7C3.04133 10.7 3.37467 8.73338 4.04133 6.80005C4.44133 5.40005 4.87467 4.33338 5.34133 3.60005C5.54133 3.20005 5.74133 2.93338 5.94133 2.80005L6.24133 2.70005L8.24133 2.60005L7.64133 3.50005C6.908 4.90005 6.47467 6.30005 6.34133 7.70005C6.27467 8.10005 6.358 8.41672 6.59133 8.65005C6.82467 8.88338 7.108 9.00005 7.44133 9.00005H7.64133C11.1747 9.00005 14.7413 9.23338 18.3413 9.70005C20.9413 10.0334 23.7747 10.5334 26.8413 11.2H26.9413C27.3413 11.6667 27.6413 12.1 27.8413 12.5C28.1747 13.3667 28.358 14.2 28.3913 15C28.4247 15.8 28.2413 16.5 27.8413 17.1H26.3413C26.1413 16.4334 25.7413 15.8667 25.1413 15.4C24.5413 14.9334 23.8413 14.7 23.0413 14.7C22.108 14.7 21.2913 15.05 20.5913 15.75C19.8913 16.45 19.5413 17.2834 19.5413 18.25C19.5413 19.2167 19.8913 20.05 20.5913 20.75C21.2913 21.45 22.108 21.8 23.0413 21.8C23.8413 21.8 24.5413 21.5834 25.1413 21.15C25.7413 20.7167 26.1413 20.1334 26.3413 19.4H28.3413C28.608 19.4 28.8413 19.3334 29.0413 19.2C29.3747 18.9334 29.6747 18.5334 29.9413 18C30.4747 17.1334 30.7413 16.1334 30.7413 15C30.7413 13.8667 30.4747 12.7334 29.9413 11.6ZM8.64133 17.1C8.97467 17.1 9.258 17.2167 9.49133 17.45C9.72467 17.6834 9.84133 17.95 9.84133 18.25C9.84133 18.55 9.72467 18.8167 9.49133 19.05C9.258 19.2834 8.97467 19.4 8.64133 19.4C8.308 19.4 8.02467 19.2834 7.79133 19.05C7.558 18.8167 7.44133 18.55 7.44133 18.25C7.44133 17.95 7.558 17.6834 7.79133 17.45C8.02467 17.2167 8.308 17.1 8.64133 17.1ZM23.7413 8.20005C20.0747 7.53338 16.5413 7.06672 13.1413 6.80005V2.70005C14.208 2.76672 15.1413 2.86671 15.9413 3.00005C18.808 4.60005 21.408 6.33338 23.7413 8.20005ZM10.7413 3.10005V6.70005H8.84133C9.17467 5.43338 9.808 4.23338 10.7413 3.10005ZM23.0413 19.4C22.708 19.4 22.4413 19.2834 22.2413 19.05C22.0413 18.8167 21.9413 18.55 21.9413 18.25C21.9413 17.95 22.0413 17.6834 22.2413 17.45C22.4413 17.2167 22.708 17.1 23.0413 17.1C23.3747 17.1 23.658 17.2167 23.8913 17.45C24.1247 17.6834 24.2413 17.95 24.2413 18.25C24.2413 18.55 24.1247 18.8167 23.8913 19.05C23.658 19.2834 23.3747 19.4 23.0413 19.4Z" fill="#F51304"/>
</svg>
