<svg width="31" height="26" viewBox="0 0 31 26" fill="none" xmlns="http://www.w3.org/2000/svg">
<path d="M0.741333 21.6V23.6C0.741333 24.0666 0.908 24.4666 1.24133 24.8C1.57467 25.1333 1.97467 25.3 2.44133 25.3H4.44133C4.908 25.3 5.308 25.1333 5.64133 24.8C5.97467 24.4666 6.14133 24.0666 6.14133 23.6V22.1H2.44133C1.908 22.1 1.34133 21.9333 0.741333 21.6ZM23.5413 14.5C23.7413 14.0333 23.8413 13.5333 23.8413 13C23.8413 11.8 23.408 10.7833 22.5413 9.94995C21.6747 9.11662 20.6747 8.69995 19.5413 8.69995C19.008 8.69995 18.4747 8.79995 17.9413 8.99995V17C19.0747 17.4 20.1747 17.3666 21.2413 16.9C22.308 16.4333 23.0747 15.6333 23.5413 14.5ZM4.34133 14.3H8.54133V16.8H4.34133V14.3ZM10.1413 5.29995C9.27467 5.29995 8.49133 5.58328 7.79133 6.14995C7.09133 6.71662 6.64133 7.43328 6.44133 8.29995H13.7413C13.608 7.43328 13.1913 6.71662 12.4913 6.14995C11.7913 5.58328 11.008 5.29995 10.1413 5.29995ZM5.54133 1.79995L3.14133 8.29995H4.94133C5.14133 7.03328 5.72467 5.96662 6.69133 5.09995C7.658 4.23328 8.79133 3.79995 10.0913 3.79995C11.3913 3.79995 12.5413 4.23328 13.5413 5.09995C14.5413 5.96662 15.108 7.03328 15.2413 8.29995H16.4413V0.699951H7.14133C6.74133 0.699951 6.408 0.799951 6.14133 0.999951C5.87467 1.19995 5.67467 1.46662 5.54133 1.79995ZM28.7413 11.7C28.408 11.7 28.208 11.5 28.1413 11.1C27.8747 10.1 27.4413 9.13328 26.8413 8.19995C26.6413 7.86662 26.6747 7.56662 26.9413 7.29995L28.1413 5.79995L26.6413 4.29995L25.1413 5.49995C24.8747 5.76662 24.608 5.79995 24.3413 5.59995C23.408 4.99995 22.408 4.56662 21.3413 4.29995C21.008 4.29995 20.808 4.09995 20.7413 3.69995L20.5413 1.79995H17.9413V7.39995C18.9413 7.13328 19.9413 7.13328 20.9413 7.39995C21.9413 7.66662 22.808 8.14995 23.5413 8.84995C24.2747 9.54995 24.7747 10.4166 25.0413 11.45C25.308 12.4833 25.3247 13.4833 25.0913 14.45C24.858 15.4166 24.3747 16.2666 23.6413 17C22.908 17.7333 22.0413 18.25 21.0413 18.55C20.0413 18.85 19.008 18.8666 17.9413 18.6V24.3H20.5413L20.7413 22.3C20.808 21.9666 21.008 21.7666 21.3413 21.7C22.408 21.4333 23.408 21 24.3413 20.4C24.608 20.2 24.8747 20.2 25.1413 20.4L26.6413 21.7L28.2413 20.2L26.9413 18.7C26.7413 18.3666 26.7413 18.0666 26.9413 17.8C27.5413 16.8666 27.9413 15.8666 28.1413 14.8C28.208 14.4666 28.4413 14.3 28.8413 14.3L30.7413 14.1V11.9L28.7413 11.7ZM1.64133 10.5C1.04133 11.1 0.741333 11.8 0.741333 12.6V18.9C0.741333 19.3666 0.908 19.7666 1.24133 20.1C1.57467 20.4333 1.97467 20.6 2.44133 20.6H16.4413V17.5H13.4413C13.2413 17.5 13.058 17.4166 12.8913 17.25C12.7247 17.0833 12.6413 16.9 12.6413 16.7C12.6413 16.5 12.7247 16.3333 12.8913 16.2C13.058 16.0666 13.2413 16 13.4413 16H16.4413V15.2H13.4413C13.2413 15.2 13.058 15.1166 12.8913 14.95C12.7247 14.7833 12.6413 14.6 12.6413 14.4C12.6413 14.2 12.7247 14.0333 12.8913 13.9C13.058 13.7666 13.2413 13.7 13.4413 13.7H16.4413V9.69995H2.54133L1.64133 10.5ZM2.84133 13.6C2.84133 13.4 2.908 13.2333 3.04133 13.1C3.17467 12.9666 3.37467 12.9 3.64133 12.9H9.34133C9.54133 12.9 9.708 12.9666 9.84133 13.1C9.97467 13.2333 10.0413 13.4 10.0413 13.6V17.6C10.0413 17.8 9.97467 17.9666 9.84133 18.1C9.708 18.2333 9.54133 18.3 9.34133 18.3H3.64133C3.37467 18.3 3.17467 18.2333 3.04133 18.1C2.908 17.9666 2.84133 17.8 2.84133 17.6V13.6Z" fill="#F51304"/>
</svg>
