<svg width="54" height="55" viewBox="0 0 54 55" fill="none" xmlns="http://www.w3.org/2000/svg">
<path d="M51.03 0.5H2.97C2.18231 0.5 1.42688 0.81291 0.869893 1.36989C0.31291 1.92688 0 2.68231 0 3.47V51.53C0 51.92 0.0768216 52.3062 0.226078 52.6666C0.375335 53.0269 0.594103 53.3543 0.869893 53.6301C1.14568 53.9059 1.47309 54.1247 1.83343 54.2739C2.19377 54.4232 2.57997 54.5 2.97 54.5H28.836V33.575H21.816V25.475H28.836V19.4C28.6906 17.9737 28.859 16.5329 29.3293 15.1787C29.7997 13.8244 30.5607 12.5894 31.5589 11.5603C32.557 10.5312 33.7683 9.73303 35.1076 9.22164C36.447 8.71025 37.882 8.49808 39.312 8.6C41.4135 8.58707 43.514 8.69525 45.603 8.924V16.214H41.31C37.908 16.214 37.26 17.834 37.26 20.183V25.394H45.36L44.307 33.494H37.26V54.5H51.03C51.42 54.5 51.8062 54.4232 52.1666 54.2739C52.5269 54.1247 52.8543 53.9059 53.1301 53.6301C53.4059 53.3543 53.6247 53.0269 53.7739 52.6666C53.9232 52.3062 54 51.92 54 51.53V3.47C54 3.07997 53.9232 2.69377 53.7739 2.33343C53.6247 1.97309 53.4059 1.64568 53.1301 1.36989C52.8543 1.0941 52.5269 0.875335 52.1666 0.726078C51.8062 0.576822 51.42 0.5 51.03 0.5Z" fill="white"/>
</svg>
